<?xml version="1.0" encoding="UTF-8"?>
<svg xmlns="http://www.w3.org/2000/svg" xmlns:xlink="http://www.w3.org/1999/xlink" width="24pt" height="24pt" viewBox="0 0 24 24" version="1.1">
<g id="surface25922636">
<path style="fill-rule:nonzero;fill:rgb(0%,0%,0%);fill-opacity:1;stroke-width:1;stroke-linecap:butt;stroke-linejoin:round;stroke:rgb(0%,0%,0%);stroke-opacity:1;stroke-miterlimit:10;" d="M 96.758562 25.081756 L 96.758562 30.066744 C 115.290325 34.854586 129.006083 51.640195 129.006083 71.664639 L 129.006083 114.670722 L 143.341445 129.006083 L 143.341445 136.159682 L 98.392061 136.159682 C 99.659431 138.356456 100.335361 140.806705 100.335361 143.341445 C 100.335361 151.255465 93.914021 157.676806 86 157.676806 C 78.085979 157.676806 71.664639 151.255465 71.664639 143.341445 C 71.664639 140.806705 72.340569 138.356456 73.607939 136.159682 L 28.658555 136.159682 L 28.658555 129.006083 L 42.993917 114.670722 L 42.993917 71.664639 C 42.993917 51.640195 56.709675 34.854586 75.241438 30.066744 L 75.241438 25.081756 C 75.241438 19.1392 80.057444 14.323194 86 14.323194 C 91.942556 14.323194 96.758562 19.1392 96.758562 25.081756 Z M 57.329278 71.664639 L 57.329278 120.613279 L 56.090072 121.824321 L 115.909928 121.824321 L 114.670722 120.613279 L 114.670722 71.664639 C 114.670722 55.864761 101.799877 42.993917 86 42.993917 C 70.200123 42.993917 57.329278 55.864761 57.329278 71.664639 Z M 57.329278 71.664639 " transform="matrix(0.138698,0,0,0.138698,0.072,0.072)"/>
<path style=" stroke:none;fill-rule:nonzero;fill:rgb(0%,0%,0%);fill-opacity:1;" d="M 12 2.058594 C 11.175781 2.058594 10.507812 2.726562 10.507812 3.550781 L 10.507812 4.242188 C 7.9375 4.90625 6.035156 7.234375 6.035156 10.011719 L 6.035156 15.976562 L 4.046875 17.964844 L 4.046875 18.957031 L 10.28125 18.957031 C 10.105469 19.261719 10.011719 19.601562 10.011719 19.953125 C 10.011719 21.050781 10.902344 21.941406 12 21.941406 C 13.097656 21.941406 13.988281 21.050781 13.988281 19.953125 C 13.988281 19.601562 13.894531 19.261719 13.71875 18.957031 L 19.953125 18.957031 L 19.953125 17.964844 L 17.964844 15.976562 L 17.964844 10.011719 C 17.964844 7.234375 16.0625 4.90625 13.492188 4.242188 L 13.492188 3.550781 C 13.492188 2.726562 12.824219 2.058594 12 2.058594 Z M 12 6.035156 C 14.191406 6.035156 15.976562 7.820312 15.976562 10.011719 L 15.976562 16.800781 L 16.148438 16.96875 L 7.851562 16.96875 L 8.023438 16.800781 L 8.023438 10.011719 C 8.023438 7.820312 9.808594 6.035156 12 6.035156 Z M 12 6.035156 "/>
</g>
</svg>
