<?xml version="1.0" encoding="utf-8"?>
<!-- Generator: Adobe Illustrator 16.0.0, SVG Export Plug-In . SVG Version: 6.00 Build 0)  -->
<!DOCTYPE svg PUBLIC "-//W3C//DTD SVG 1.1//EN" "http://www.w3.org/Graphics/SVG/1.1/DTD/svg11.dtd">
<svg version="1.1" id="Layer_1" xmlns="http://www.w3.org/2000/svg" xmlns:xlink="http://www.w3.org/1999/xlink" x="0px" y="0px"
	 width="24px" height="24px" viewBox="0 0 24 24" enable-background="new 0 0 24 24" xml:space="preserve">
<g id="surface25922636">
	<path stroke="#000000" stroke-linejoin="round" stroke-miterlimit="10" d="M13.492,3.551v0.691c2.57,0.664,4.473,2.992,4.473,5.77
		v5.965l1.988,1.988v0.992h-6.234c0.176,0.305,0.27,0.645,0.27,0.996c0,1.098-0.891,1.988-1.988,1.988s-1.988-0.891-1.988-1.988
		c0-0.352,0.094-0.691,0.27-0.996H4.047v-0.992l1.988-1.988v-5.965c0-2.777,1.902-5.105,4.473-5.77V3.551
		c0-0.824,0.668-1.492,1.492-1.492S13.492,2.727,13.492,3.551z M8.023,10.012v6.789l-0.172,0.168h8.297l-0.172-0.168v-6.789
		c0-2.191-1.785-3.977-3.977-3.977S8.023,7.82,8.023,10.012z"/>
	<path d="M12,2.059c-0.824,0-1.492,0.668-1.492,1.492v0.691c-2.57,0.664-4.473,2.992-4.473,5.77v5.965l-1.988,1.988v0.992h6.234
		c-0.176,0.305-0.27,0.645-0.27,0.996c0,1.098,0.891,1.988,1.988,1.988s1.988-0.891,1.988-1.988c0-0.352-0.094-0.691-0.27-0.996
		h6.234v-0.992l-1.988-1.988v-5.965c0-2.777-1.902-5.105-4.473-5.77V3.551C13.492,2.727,12.824,2.059,12,2.059z M12,6.035
		c2.191,0,3.977,1.785,3.977,3.977v6.789l0.172,0.168H7.852l0.172-0.168v-6.789C8.023,7.82,9.809,6.035,12,6.035z"/>
</g>
<circle fill="#FF0000" stroke="#FFFFFF" stroke-miterlimit="10" cx="17.25" cy="17.688" r="3.188"/>
</svg>
