<svg width="22" height="20" viewBox="0 0 22 20" fill="none" xmlns="http://www.w3.org/2000/svg">
<path d="M13.168 0L6.58398 6.5957C6.21184 6.96885 6.00207 7.47382 6 8H0V20H6C6.36605 20 6.70494 19.8942 7 19.7227C7.29506 19.8942 7.63395 20 8 20H16.9922C17.7912 20 18.5141 19.5241 18.8301 18.7891L21.8379 11.7871C21.9449 11.5381 22 11.269 22 10.998V9C22 7.895 21.105 7 20 7H13.6484L14.5859 2.70312C14.7319 2.03212 14.5232 1.33452 14.0332 0.853516L13.168 0ZM12.3262 3.67383L11.6953 6.57422L11.168 9H13.6504H20V10.998L16.9922 18H8V10V8.00781L12.3262 3.67383ZM2 10H6V18H2V10Z" fill="#33CCCC"/>
</svg>
